<svg xmlns="http://www.w3.org/2000/svg" version="1.1" xmlns:xlink="http://www.w3.org/1999/xlink" xmlns:svgjs="http://svgjs.dev/svgjs" width="1000" height="1000" viewBox="0 0 1000 1000"><rect width="1000" height="1000" fill="#000000"></rect><g transform="matrix(0.47329276538201487,0,0,0.47329276538201487,263.48190396801624,150.28340080971657)"><svg viewBox="0 0 167 247" data-background-color="#ffffff" preserveAspectRatio="xMidYMid meet" height="1479" width="1000" xmlns="http://www.w3.org/2000/svg" xmlns:xlink="http://www.w3.org/1999/xlink"><g id="tight-bounds" transform="matrix(1,0,0,1,-0.04526558110319456,-0.09999999999999432)"><svg viewBox="0 0 167.09053116220642 247.2" height="247.2" width="167.09053116220642"><g><svg viewBox="0 0 397.4975999999999 588.0728610803851" height="247.2" width="167.09053116220642"><g><rect width="397.4975999999999" height="20.75923702127694" x="0" y="282.7749124117197" fill="#ffffff" opacity="1" stroke-width="0" stroke="transparent" fill-opacity="1" class="rect-o-0" data-fill-palette-color="secondary" rx="1%" id="o-0" data-palette-color="#ca3433"></rect></g><g transform="matrix(1,0,0,1,0.9887999999999693,357.8777018447164)"><svg viewBox="0 0 395.52 230.19515923566877" height="230.19515923566877" width="395.52"><g id="textblocktransform"><svg viewBox="0 0 395.52 230.19515923566877" height="230.19515923566877" width="395.52" id="textblock"><g><svg viewBox="0 0 395.52 230.19515923566877" height="230.19515923566877" width="395.52"><g transform="matrix(1,0,0,1,0,0)"><svg width="395.52" viewBox="3.8600001335144043 -35.689998626708984 61.31999969482422 35.689998626708984" height="230.19515923566877" data-palette-color="#ff0000"><path d="M15.94-12.99L13.5-12.99 13.5 0 3.86 0 3.86-35.69 15.55-35.69Q30.1-35.69 30.1-25.15L30.1-25.15Q30.1-18.95 24.05-15.55L24.05-15.55 34.45 0 23.51 0 15.94-12.99ZM13.5-28.39L13.5-20.24 15.31-20.24Q20.36-20.24 20.36-24.71L20.36-24.71Q20.36-28.39 15.41-28.39L15.41-28.39 13.5-28.39ZM37.69 0L37.69-35.69 50.14-35.69Q57.42-35.69 60.95-33.53 64.48-31.37 64.48-26.81L64.48-26.81Q64.48-23.8 62.94-21.68 61.4-19.56 58.88-18.95L58.88-18.95 58.88-18.7Q62.2-17.82 63.69-15.77 65.18-13.72 65.18-10.45L65.18-10.45Q65.18-5.59 61.53-2.8 57.88 0 51.58 0L51.58 0 37.69 0ZM47.34-28.39L47.34-22 50.24-22Q52.32-22 53.45-22.85 54.59-23.71 54.59-25.39L54.59-25.39Q54.59-28.39 50.05-28.39L50.05-28.39 47.34-28.39ZM50.53-14.94L47.34-14.94 47.34-7.45 50.73-7.45Q55.25-7.45 55.25-11.25L55.25-11.25Q55.25-13.04 54.04-13.99 52.83-14.94 50.53-14.94L50.53-14.94Z" opacity="1" transform="matrix(1,0,0,1,0,0)" fill="#ffffff" class="wordmark-text-0" data-fill-palette-color="primary" id="text-0"></path></svg></g></svg></g></svg></g></svg></g><g transform="matrix(1,0,0,1,76.53311999999997,0)"><svg viewBox="0 0 244.43135999999998 228.43135999999998" height="228.43135999999998" width="244.43135999999998"><g><svg xmlns="http://www.w3.org/2000/svg" xmlns:xlink="http://www.w3.org/1999/xlink" version="1.1" x="8" y="0" viewBox="5 5 90 90" enable-background="new 0 0 100 100" xml:space="preserve" height="228.43135999999998" width="228.43135999999998" class="icon-icon-0" data-fill-palette-color="accent" id="icon-0"><path d="M50 5C25.1 5 5 25.1 5 50c0 24.8 20.1 45 45 45 24.9 0 45-20.2 45-45C95 25.1 74.9 5 50 5L50 5zM50 77c-14.9 0-27-12.1-27-27 0-14.9 12.1-27 27-27 14.9 0 27 12.1 27 27C77 64.9 64.9 77 50 77L50 77zM40.3 30.7C34 33.9 29.5 40 28.6 47.3h8C36.8 40.7 38.2 35 40.3 30.7L40.3 30.7zM50 70.7c3.1 0 7.3-6.8 8-18H42C42.7 63.9 46.9 70.7 50 70.7L50 70.7zM28.6 52.7c1 7.5 5.7 13.8 12.4 16.9-2.4-4.2-4-10-4.4-16.9H28.6zM59.7 30.7c2.1 4.3 3.5 10 3.8 16.6h7.9C70.5 40 66 33.9 59.7 30.7L59.7 30.7zM50 28.4c-3.2 0-7.5 7.1-8 18.9H58C57.5 35.5 53.2 28.4 50 28.4L50 28.4zM59 69.5c6.6-3.1 11.4-9.3 12.4-16.9h-8C63 59.5 61.5 65.4 59 69.5z" fill="#ffffff" data-fill-palette-color="accent"></path></svg></g></svg></g><g></g></svg></g><defs></defs></svg><rect width="167.09053116220642" height="247.2" fill="none" stroke="none" visibility="hidden"></rect></g></svg></g></svg>