<svg xmlns="http://www.w3.org/2000/svg" version="1.1" xmlns:xlink="http://www.w3.org/1999/xlink" xmlns:svgjs="http://svgjs.dev/svgjs" width="1000" height="323" viewBox="0 0 1000 323"><g transform="matrix(1,0,0,1,0.16994382022471655,-0.0529298404103713)"><svg viewBox="0 0 356 115" data-background-color="#ffffff" preserveAspectRatio="xMidYMid meet" height="323" width="1000" xmlns="http://www.w3.org/2000/svg" xmlns:xlink="http://www.w3.org/1999/xlink"><g id="tight-bounds" transform="matrix(1,0,0,1,-0.06049999999999045,0.01884498961979375)"><svg viewBox="0 0 356.12051999999994 114.96231002076043" height="114.96231002076043" width="356.12051999999994"><g><svg viewBox="0 0 356.12051999999994 114.96231002076043" height="114.96231002076043" width="356.12051999999994"><g><svg viewBox="0 0 356.12051999999994 114.96231002076043" height="114.96231002076043" width="356.12051999999994"><g><path d="M0 114.962v-114.962h356.121v114.962z" fill="#ff0000" stroke="transparent" stroke-width="0" rx="0%" data-fill-palette-color="tertiary"></path><path d="M3.283 111.679v-108.396h349.554v108.396z" fill="#ffffff" stroke="transparent" stroke-width="0" rx="0%" data-fill-palette-color="quaternary"></path><path d="M9.85 105.112v-95.262h336.421v95.262z" fill="#ff0000" stroke="transparent" stroke-width="0" data-fill-palette-color="tertiary"></path></g><g transform="matrix(1,0,0,1,19.69974,19.69974)" id="textblocktransform"><svg viewBox="0 0 316.72103999999996 75.56283002076043" height="75.56283002076043" width="316.72103999999996" id="textblock"><g><svg viewBox="0 0 316.72103999999996 43.09483003278688" height="43.09483003278688" width="316.72103999999996"><g transform="matrix(1,0,0,1,0,0)"><svg width="316.72103999999996" viewBox="3.049999952316284 -40.95000076293945 304.9700012207031 41.5" height="43.09483003278688" data-palette-color="#ffffff"><path d="M10.45 0L3.05 0 3.05-40.5 12.75-40.5Q16.85-40.5 19.68-39.53 22.5-38.55 23.98-36.2 25.45-33.85 25.45-29.8L25.45-29.8Q25.45-27.35 25-25.4 24.55-23.45 23.48-22.08 22.4-20.7 20.5-19.95L20.5-19.95 26.15 0 18.75 0 13.85-18.55 10.45-18.55 10.45 0ZM10.45-35.45L10.45-23.2 12.75-23.2Q14.9-23.2 16.18-23.83 17.45-24.45 18-25.83 18.55-27.2 18.55-29.35L18.55-29.35Q18.55-32.4 17.43-33.93 16.3-35.45 13.15-35.45L13.15-35.45 10.45-35.45ZM42.05 0.55L42.05 0.55Q37.55 0.55 35.05-1.1 32.55-2.75 31.6-5.8 30.65-8.85 30.65-13.1L30.65-13.1 30.65-40.5 37.85-40.5 37.85-12.25Q37.85-10.35 38.1-8.68 38.35-7 39.27-5.98 40.2-4.95 42.05-4.95L42.05-4.95Q44-4.95 44.87-5.98 45.75-7 46.02-8.68 46.3-10.35 46.3-12.25L46.3-12.25 46.3-40.5 53.45-40.5 53.45-13.1Q53.45-8.85 52.5-5.8 51.55-2.75 49.07-1.1 46.6 0.55 42.05 0.55ZM70.15 0.55L70.15 0.55Q65.7 0.55 63.17-1.2 60.65-2.95 59.65-5.98 58.65-9 58.65-12.95L58.65-12.95 58.65-27.4Q58.65-31.55 59.65-34.6 60.65-37.65 63.17-39.3 65.7-40.95 70.15-40.95L70.15-40.95Q74.35-40.95 76.72-39.53 79.1-38.1 80.1-35.45 81.1-32.8 81.1-29.3L81.1-29.3 81.1-25.9 74-25.9 74-29.4Q74-31.1 73.82-32.5 73.65-33.9 72.87-34.73 72.1-35.55 70.2-35.55L70.2-35.55Q68.3-35.55 67.42-34.68 66.55-33.8 66.3-32.33 66.05-30.85 66.05-29L66.05-29 66.05-11.4Q66.05-9.2 66.4-7.78 66.75-6.35 67.67-5.63 68.6-4.9 70.2-4.9L70.2-4.9Q72.05-4.9 72.82-5.78 73.6-6.65 73.8-8.1 74-9.55 74-11.35L74-11.35 74-15 81.1-15 81.1-11.75Q81.1-8.15 80.15-5.38 79.2-2.6 76.82-1.03 74.45 0.55 70.15 0.55ZM93.69 0L86.34 0 86.34-40.5 93.69-40.5 93.69-23.55 101.94-23.55 101.94-40.5 109.34-40.5 109.34 0 101.94 0 101.94-18.3 93.69-18.3 93.69 0ZM123.04 0L115.74 0 115.74-40.5 123.04-40.5 123.04 0ZM136.69 0L129.29 0 129.29-40.5 138.99-40.5Q143.09-40.5 145.91-39.53 148.74-38.55 150.21-36.2 151.69-33.85 151.69-29.8L151.69-29.8Q151.69-27.35 151.24-25.4 150.79-23.45 149.71-22.08 148.64-20.7 146.74-19.95L146.74-19.95 152.39 0 144.99 0 140.09-18.55 136.69-18.55 136.69 0ZM136.69-35.45L136.69-23.2 138.99-23.2Q141.14-23.2 142.41-23.83 143.69-24.45 144.24-25.83 144.79-27.2 144.79-29.35L144.79-29.35Q144.79-32.4 143.66-33.93 142.54-35.45 139.39-35.45L139.39-35.45 136.69-35.45ZM181.03 0L169.38 0 169.38-40.5 179.33-40.5Q182.03-40.5 184.21-40 186.38-39.5 187.96-38.33 189.53-37.15 190.38-35.15 191.23-33.15 191.23-30.1L191.23-30.1Q191.23-27.65 190.56-25.9 189.88-24.15 188.58-23.13 187.28-22.1 185.33-21.75L185.33-21.75Q187.73-21.35 189.31-20.08 190.88-18.8 191.66-16.75 192.43-14.7 192.43-11.8L192.43-11.8Q192.43-8.9 191.71-6.68 190.98-4.45 189.56-2.98 188.13-1.5 186.01-0.75 183.88 0 181.03 0L181.03 0ZM176.78-18.85L176.78-5.2 179.58-5.2Q182.93-5.2 184.13-6.83 185.33-8.45 185.33-11.85L185.33-11.85Q185.33-14.3 184.76-15.83 184.18-17.35 182.86-18.1 181.53-18.85 179.33-18.85L179.33-18.85 176.78-18.85ZM176.78-35.35L176.78-23.95 179.28-23.95Q181.48-23.95 182.68-24.6 183.88-25.25 184.36-26.6 184.83-27.95 184.83-30L184.83-30Q184.83-32.15 184.11-33.33 183.38-34.5 181.93-34.93 180.48-35.35 178.23-35.35L178.23-35.35 176.78-35.35ZM204.68 0L197.33 0 197.33-40.5 204.68-40.5 204.68-23.55 212.93-23.55 212.93-40.5 220.33-40.5 220.33 0 212.93 0 212.93-18.3 204.68-18.3 204.68 0ZM231.43 0L224.48 0 232.58-40.5 240.48-40.5 248.58 0 241.73 0 240.13-9.35 233.08-9.35 231.43 0ZM236.58-31.05L233.83-14.05 239.33-14.05 236.58-31.05ZM262.18 0L254.78 0 254.78-35.05 248.33-35.05 248.33-40.5 268.53-40.5 268.53-35.05 262.18-35.05 262.18 0ZM279.72 0L272.42 0 272.42-40.5 279.72-40.5 279.72 0ZM290.87 0L283.92 0 292.02-40.5 299.92-40.5 308.02 0 301.17 0 299.57-9.35 292.52-9.35 290.87 0ZM296.02-31.05L293.27-14.05 298.77-14.05 296.02-31.05Z" opacity="1" transform="matrix(1,0,0,1,0,0)" fill="#ffffff" class="wordmark-text-0" data-fill-palette-color="quaternary" id="text-0"></path></svg></g></svg></g><g transform="matrix(1,0,0,1,0,49.66141003278688)"><svg viewBox="0 0 316.72103999999996 25.90141998797354" height="25.90141998797354" width="316.72103999999996"><g transform="matrix(1,0,0,1,0,0)"><svg width="316.72103999999996" viewBox="4 -33.25 415.7099914550781 34" height="25.90141998797354" data-palette-color="#ffffff"><path d="M20.9-6.25L20.9-6.25Q20.9 0.75 12.45 0.75 4 0.75 4-6.25L4-6.25 4-10.5 7.5-10.5 7.5-6.05Q7.5-4.25 8.75-3.25 10-2.25 12.45-2.25 14.9-2.25 16.15-3.25 17.4-4.25 17.4-5.98 17.4-7.7 17.03-8.72 16.65-9.75 15.5-10.9L15.5-10.9 6.7-19.5Q5.15-21.05 4.58-22.53 4-24 4-26.25L4-26.25Q4-29.6 6.08-31.43 8.15-33.25 12.35-33.25L12.35-33.25Q20.4-33.25 20.4-26.25L20.4-26.25 20.4-22 16.9-22 16.9-26.45Q16.9-28.25 15.73-29.25 14.55-30.25 12.2-30.25 9.85-30.25 8.68-29.25 7.5-28.25 7.5-26.5 7.5-24.75 7.85-23.75 8.2-22.75 9.4-21.65L9.4-21.65 18.35-13.05Q19.8-11.45 20.35-9.98 20.9-8.5 20.9-6.25ZM46.15-26.25L46.15-26.25 46.15-6.25Q46.15-2.9 44.02-1.07 41.9 0.75 37.67 0.75 33.45 0.75 31.3-1.07 29.15-2.9 29.15-6.25L29.15-6.25 29.15-26.25Q29.15-29.6 31.27-31.43 33.4-33.25 37.62-33.25 41.85-33.25 44-31.43 46.15-29.6 46.15-26.25ZM42.65-6.25L42.65-6.25 42.65-26.25Q42.65-30.25 37.65-30.25 32.65-30.25 32.65-26.25L32.65-26.25 32.65-6.25Q32.65-2.25 37.65-2.25 42.65-2.25 42.65-6.25ZM58.9-15L58.9 0 55.4 0 55.4-32.5 69.15-32.5 69.15-29.5 58.9-29.5 58.9-18 67.15-18 67.15-15 58.9-15ZM75.39-5.75L75.39-32.5 86.39-32.5 86.39-29.5 78.89-29.5 78.89-5.55Q78.89-4.15 79.62-3.2 80.34-2.25 81.67-2.25 82.99-2.25 83.69-3.18 84.39-4.1 84.39-5.55L84.39-5.55 84.39-11.5 87.89-11.5 87.89-5.75Q87.89-2.6 86.22-0.93 84.54 0.75 81.69 0.75 78.84 0.75 77.12-0.93 75.39-2.6 75.39-5.75L75.39-5.75ZM107.14-6.25L107.14-6.25 107.14-32.5 110.64-32.5 110.64-6.25Q110.64-2.25 115.27-2.25 119.89-2.25 119.89-6.25L119.89-6.25 119.89-32.5 123.39-32.5 123.39-6.25Q123.39-2.95 121.29-1.1 119.19 0.75 115.07 0.75 110.94 0.75 108.89-2.15L108.89-2.15Q106.94 0.75 102.77 0.75 98.59 0.75 96.49-1.1 94.39-2.95 94.39-6.25L94.39-6.25 94.39-32.5 97.89-32.5 97.89-6.25Q97.89-2.25 102.52-2.25 107.14-2.25 107.14-6.25ZM148.39-26.25L148.39 0 146.89 0 145.59-3.2Q144.54-1.4 142.84-0.33 141.14 0.75 139.09 0.75L139.09 0.75Q131.89 0.75 131.89-6.25L131.89-6.25 131.89-11.25Q131.89-18.25 139.09-18.25L139.09-18.25 144.89-18.25 144.89-26.45Q144.89-28.25 143.74-29.25 142.59-30.25 140.34-30.25L140.34-30.25Q135.89-30.25 135.89-26.45L135.89-26.45 135.89-23.5 132.39-23.5 132.39-26.25Q132.39-29.6 134.36-31.43 136.34-33.25 140.34-33.25 144.34-33.25 146.36-31.43 148.39-29.6 148.39-26.25L148.39-26.25ZM144.89-7.1L144.89-15.25 139.09-15.25Q136.99-15.25 136.19-14.2 135.39-13.15 135.39-11.25L135.39-11.25 135.39-6.25Q135.39-4.35 136.19-3.3 136.99-2.25 139.09-2.25 141.19-2.25 142.99-3.88 144.79-5.5 144.89-7.1L144.89-7.1ZM161.39-22.85L161.39 0 157.89 0 157.89-32.5 159.39-32.5 160.84-28.8Q162.44-33.25 165.94-33.25L165.94-33.25Q171.89-33.25 171.89-26.75L171.89-26.75 171.89-23.5 168.54-23.5 168.54-26.95Q168.54-30.25 165.79-30.25L165.79-30.25Q164.14-30.25 162.76-28.35 161.39-26.45 161.39-22.85L161.39-22.85ZM190.13-6.25L190.13-6.25 190.13-9 193.63-9 193.63-6.25Q193.63-2.9 191.58-1.07 189.53 0.75 185.43 0.75 181.33 0.75 179.23-1.07 177.13-2.9 177.13-6.25L177.13-6.25 177.13-26.25Q177.13-29.6 179.18-31.43 181.23-33.25 185.33-33.25 189.43-33.25 191.53-31.43 193.63-29.6 193.63-26.25L193.63-26.25 193.63-15.25 180.63-15.25 180.63-6.25Q180.63-2.25 185.38-2.25 190.13-2.25 190.13-6.25ZM180.63-26.25L180.63-26.25 180.63-18.25 190.13-18.25 190.13-26.25Q190.13-30.25 185.38-30.25 180.63-30.25 180.63-26.25ZM222.43 0L222.43 0 214.38 0 214.38-32.5 222.43-32.5Q226.33-32.5 228.35-30.65 230.38-28.8 230.38-25.5L230.38-25.5 230.38-7Q230.38-3.65 228.38-1.83 226.38 0 222.43 0ZM226.88-7L226.88-7 226.88-25.5Q226.88-27.1 225.7-28.3 224.53-29.5 222.43-29.5L222.43-29.5 217.88-29.5 217.88-3 222.43-3Q224.53-3 225.7-4.17 226.88-5.35 226.88-7ZM251.88-6.25L251.88-6.25 251.88-9 255.38-9 255.38-6.25Q255.38-2.9 253.33-1.07 251.28 0.75 247.18 0.75 243.08 0.75 240.98-1.07 238.88-2.9 238.88-6.25L238.88-6.25 238.88-26.25Q238.88-29.6 240.93-31.43 242.98-33.25 247.08-33.25 251.18-33.25 253.28-31.43 255.38-29.6 255.38-26.25L255.38-26.25 255.38-15.25 242.38-15.25 242.38-6.25Q242.38-2.25 247.13-2.25 251.88-2.25 251.88-6.25ZM242.38-26.25L242.38-26.25 242.38-18.25 251.88-18.25 251.88-26.25Q251.88-30.25 247.13-30.25 242.38-30.25 242.38-26.25ZM281.57-32.5L274.22 0 268.97 0 261.62-32.5 265.12-32.5 271.57-3.85 278.07-32.5 281.57-32.5ZM300.82-6.25L300.82-6.25 300.82-9 304.32-9 304.32-6.25Q304.32-2.9 302.27-1.07 300.22 0.75 296.12 0.75 292.02 0.75 289.92-1.07 287.82-2.9 287.82-6.25L287.82-6.25 287.82-26.25Q287.82-29.6 289.87-31.43 291.92-33.25 296.02-33.25 300.12-33.25 302.22-31.43 304.32-29.6 304.32-26.25L304.32-26.25 304.32-15.25 291.32-15.25 291.32-6.25Q291.32-2.25 296.07-2.25 300.82-2.25 300.82-6.25ZM291.32-26.25L291.32-26.25 291.32-18.25 300.82-18.25 300.82-26.25Q300.82-30.25 296.07-30.25 291.32-30.25 291.32-26.25ZM326.22 0L313.57 0 313.57-32.5 317.07-32.5 317.07-3 326.22-3 326.22 0ZM348.46-26.25L348.46-26.25 348.46-6.25Q348.46-2.9 346.34-1.07 344.21 0.75 339.99 0.75 335.76 0.75 333.61-1.07 331.46-2.9 331.46-6.25L331.46-6.25 331.46-26.25Q331.46-29.6 333.59-31.43 335.71-33.25 339.94-33.25 344.16-33.25 346.31-31.43 348.46-29.6 348.46-26.25ZM344.96-6.25L344.96-6.25 344.96-26.25Q344.96-30.25 339.96-30.25 334.96-30.25 334.96-26.25L334.96-26.25 334.96-6.25Q334.96-2.25 339.96-2.25 344.96-2.25 344.96-6.25ZM360.71-10L360.71 0 357.21 0 357.21-32.5 364.76-32.5Q368.66-32.5 370.69-30.65 372.71-28.8 372.71-25.5L372.71-25.5 372.71-17Q372.71-13.65 370.71-11.83 368.71-10 364.76-10L364.76-10 360.71-10ZM369.21-17L369.21-17 369.21-25.5Q369.21-27.4 368.06-28.45 366.91-29.5 364.76-29.5L364.76-29.5 360.71-29.5 360.71-13 364.76-13Q369.21-13 369.21-17ZM392.96-6.25L392.96-6.25 392.96-9 396.46-9 396.46-6.25Q396.46-2.9 394.41-1.07 392.36 0.75 388.26 0.75 384.16 0.75 382.06-1.07 379.96-2.9 379.96-6.25L379.96-6.25 379.96-26.25Q379.96-29.6 382.01-31.43 384.06-33.25 388.16-33.25 392.26-33.25 394.36-31.43 396.46-29.6 396.46-26.25L396.46-26.25 396.46-15.25 383.46-15.25 383.46-6.25Q383.46-2.25 388.21-2.25 392.96-2.25 392.96-6.25ZM383.46-26.25L383.46-26.25 383.46-18.25 392.96-18.25 392.96-26.25Q392.96-30.25 388.21-30.25 383.46-30.25 383.46-26.25ZM409.21-22.85L409.21 0 405.71 0 405.71-32.5 407.21-32.5 408.66-28.8Q410.26-33.25 413.76-33.25L413.76-33.25Q419.71-33.25 419.71-26.75L419.71-26.75 419.71-23.5 416.36-23.5 416.36-26.95Q416.36-30.25 413.61-30.25L413.61-30.25Q411.96-30.25 410.58-28.35 409.21-26.45 409.21-22.85L409.21-22.85Z" opacity="1" transform="matrix(1,0,0,1,0,0)" fill="#ffffff" class="slogan-text-1" data-fill-palette-color="quaternary" id="text-1"></path></svg></g></svg></g></svg></g></svg></g><g></g></svg></g><defs></defs></svg><rect width="356.12051999999994" height="114.96231002076043" fill="none" stroke="none" visibility="hidden"></rect></g></svg></g></svg>